PathFileType	4	(X/Y/Z)	 s11c0201.trc
DataRate	CameraRate	NumFrames	NumMarkers	Units	OrigDataRate	OrigDataStartFrame	OrigNumFrames
200	200	7	48	mm	200	1751	2000
Frame#	Time	racr			lacr			c7			jug			rlel			rdr			llel			ldr			s2			lic			ric			lasi			rasi			rpsi			lpsi			rgt			lgt			rth1			rth2			rth3			rth4			rlfc			rmfc			rsh1			rsh2			rsh3			rsh4			rlmal			rcal			rtoe			rmt5			lth1			lth2			lth4			lth3			llfc			lmfc			llmal			lcal			lmt5			lsh1			lsh2			lsh3			lsh4			ltoe			SBIKE			LBIKE			RBIKE			
		X1	Y1	Z1	X2	Y2	Z2	X3	Y3	Z3	X4	Y4	Z4	X5	Y5	Z5	X6	Y6	Z6	X7	Y7	Z7	X8	Y8	Z8	X9	Y9	Z9	X10	Y10	Z10	X11	Y11	Z11	X12	Y12	Z12	X13	Y13	Z13	X14	Y14	Z14	X15	Y15	Z15	X16	Y16	Z16	X17	Y17	Z17	X18	Y18	Z18	X19	Y19	Z19	X20	Y20	Z20	X21	Y21	Z21	X22	Y22	Z22	X23	Y23	Z23	X24	Y24	Z24	X25	Y25	Z25	X26	Y26	Z26	X27	Y27	Z27	X28	Y28	Z28	X29	Y29	Z29	X30	Y30	Z30	X31	Y31	Z31	X32	Y32	Z32	X33	Y33	Z33	X34	Y34	Z34	X35	Y35	Z35	X36	Y36	Z36	X37	Y37	Z37	X38	Y38	Z38	X39	Y39	Z39	X40	Y40	Z40	X41	Y41	Z41	X42	Y42	Z42	X43	Y43	Z43	X44	Y44	Z44	X45	Y45	Z45	X46	Y46	Z46	X47	Y47	Z47	X48	Y48	Z48	
1751	8.7550	440.902751	1412.812045	-70.116803	461.839099	1448.335873	-400.749300	390.732536	1531.847511	-238.114166	425.164866	1357.210716	-247.346130	552.642341	1174.238131	15.058808	767.100033	969.381460	-49.782935	558.421243	1175.815943	-495.459368	795.188475	963.527290	-443.979961	-119.399777	1190.514261	-266.561077	103.286019	1211.664924	-461.791425	88.958789	1230.014550	-60.948438	144.682052	1142.580938	-431.219062	115.803100	1172.705664	-105.836919	-84.476999	1265.652718	-218.062950	-82.170457	1253.645296	-313.304238	61.725928	1105.651891	-30.857666	21.587379	1060.629518	-467.008212	NaN	NaN	NaN	NaN	NaN	NaN	365.598200	1030.925681	-41.107799	294.147207	1103.893444	-49.310430	474.133578	991.955791	-54.890506	485.342366	974.315397	-188.598156	398.421334	854.163907	-51.061247	365.947809	774.702283	-72.876495	298.684826	719.505072	-77.045697	388.238808	764.714296	-104.653402	207.220319	623.967980	-94.487464	143.355185	632.498853	-144.853609	385.616686	479.555027	-133.315263	309.637059	486.134015	-65.441158	110.470716	937.168721	-479.680609	173.599653	880.257522	-470.700270	204.796842	899.499893	-463.947011	200.351015	794.839135	-459.469713	269.565025	679.441883	-432.008701	280.786144	671.600356	-304.855861	132.457594	272.711916	-408.259457	73.873825	241.823062	-375.125977	262.272390	154.013495	-442.709296	221.492821	563.448724	-452.252928	221.845527	478.193774	-438.389915	179.446244	401.011544	-433.520597	253.056934	473.029451	-416.495061	360.249436	158.700908	-374.021334	-205.467789	957.190626	-261.740856	1.358641	82.468056	-461.065019	-15.318518	81.054867	-62.484514	
1752	8.7600	440.694483	1412.654467	-70.134396	461.579348	1448.203789	-400.786418	390.578669	1531.778883	-238.190373	424.844952	1357.116298	-247.349180	552.552106	1174.250878	15.104655	767.145932	969.393407	-49.534709	558.349307	1175.751957	-495.197888	795.205908	963.566553	-443.863748	-119.637335	1190.571486	-266.637926	103.045257	1211.692467	-461.950729	88.442060	1230.367637	-61.024833	144.434733	1142.609987	-431.488408	115.352936	1173.073492	-105.980660	-84.649655	1265.733160	-218.187757	-82.387639	1253.690459	-313.374722	61.568869	1106.017031	-30.840345	21.229725	1060.597592	-467.038306	NaN	NaN	NaN	NaN	NaN	NaN	365.692427	1032.446413	-41.401179	293.954173	1105.242971	-49.531301	474.417938	994.057562	-55.318077	485.571828	976.598034	-189.193371	400.241811	855.491920	-51.204938	368.644729	775.681973	-72.903469	302.027447	719.666516	-76.997271	391.113757	765.847123	-104.664225	211.669627	623.005393	-94.280712	147.808460	630.957817	-144.603589	391.327833	480.007447	-133.159700	315.200220	485.971262	-65.260472	109.948027	937.142286	-479.649811	173.015495	880.169576	-470.754408	204.212445	899.319641	-463.962283	199.632686	794.706429	-459.479030	268.552523	679.189715	-432.124746	280.141108	671.313387	-304.794697	127.331017	273.831794	-408.184586	68.597220	243.133168	-375.025660	256.602583	154.494825	-442.822424	219.424888	563.626743	-452.346282	218.981663	478.413471	-438.371815	175.822798	401.576898	-433.485229	250.102982	472.908507	-416.540211	354.619566	158.748982	-374.312520	-205.482019	957.176789	-261.724290	1.400543	82.383893	-461.136893	-15.313720	81.038400	-62.478607	
1753	8.7650	440.494668	1412.540396	-70.210755	461.339074	1448.105566	-400.806083	390.413899	1531.709843	-238.259739	424.520761	1357.020602	-247.304565	552.487414	1174.271187	15.109654	767.202965	969.431700	-49.303119	558.275829	1175.707016	-494.933657	795.226587	963.602421	-443.774119	-119.862981	1190.702704	-266.782046	102.812398	1211.750140	-462.125545	88.021631	1230.763009	-61.066492	144.152096	1142.590723	-431.701793	114.939104	1173.428771	-106.057207	-84.875057	1265.793581	-218.277738	-82.595578	1253.708354	-313.472436	61.395584	1106.346268	-30.845417	20.839057	1060.605213	-467.037504	NaN	NaN	NaN	NaN	NaN	NaN	365.752748	1033.786028	-41.668892	293.861998	1106.417157	-49.460351	474.552657	995.985846	-55.884367	485.811744	978.609076	-189.612314	402.039002	856.632461	-51.398672	371.392632	776.431267	-72.904488	305.397461	719.608616	-76.945824	394.000717	766.704514	-104.728275	216.136568	621.760091	-94.067927	152.271241	629.209773	-144.341770	396.929456	480.223322	-132.978807	320.749135	485.622021	-65.048045	109.489352	937.155786	-479.644893	172.509082	880.100581	-470.761066	203.757259	899.247346	-464.095788	199.079611	794.644096	-459.551605	267.653612	679.007054	-432.293508	279.864492	671.199052	-304.708482	122.353406	275.126329	-408.122843	63.164726	244.546806	-375.031962	250.959873	155.230670	-442.925215	217.524224	563.837841	-452.445842	216.220385	478.573540	-438.409872	172.297372	402.209154	-433.492063	247.253001	472.823644	-416.524060	349.074604	159.105432	-374.531132	-205.484909	957.144568	-261.747588	1.401875	82.383985	-461.143351	-15.315562	81.053269	-62.474776	
1754	8.7700	440.283123	1412.476248	-70.279262	461.115325	1447.983649	-400.800572	390.287580	1531.663244	-238.355756	424.170264	1356.945807	-247.409845	552.413108	1174.337069	15.085555	767.235188	969.478655	-49.121637	558.178483	1175.637115	-494.658937	795.223459	963.615841	-443.665525	-120.064170	1190.696574	-266.920303	102.420817	1211.716570	-462.145153	87.567818	1231.009817	-61.081288	143.834995	1142.614276	-431.932251	114.553730	1173.755914	-106.120252	-85.074439	1265.775467	-218.389915	-82.853884	1253.747724	-313.553627	61.202487	1106.647163	-30.880925	20.444423	1060.559738	-466.994952	NaN	NaN	NaN	NaN	NaN	NaN	365.778038	1034.930634	-41.944884	293.577942	1107.379041	-49.723430	474.705638	997.658781	-56.250118	485.922327	980.565660	-190.047820	403.650692	857.643988	-51.597377	373.958620	776.965566	-72.928647	308.565065	719.531870	-76.887193	396.888127	767.438545	-104.552717	220.644652	620.296076	-93.844584	156.858658	627.322024	-143.827826	402.483773	480.105402	-132.757278	326.194415	485.071698	-64.828935	109.070924	937.174488	-479.592215	172.085347	880.151202	-470.836483	203.343302	899.268052	-464.279201	198.633695	794.659617	-459.614429	266.990443	678.928669	-432.460203	279.935796	671.230403	-304.697060	117.338426	276.590391	-408.125139	58.096990	246.087133	-374.963432	245.431699	156.206675	-443.113251	215.706874	564.153903	-452.498593	213.547706	479.032683	-438.437427	168.873412	403.120368	-433.525722	244.562050	472.953460	-416.550007	343.566033	159.602263	-374.738795	-205.489874	957.139848	-261.770409	1.361874	82.470546	-461.079349	-15.246361	81.054857	-62.556346	
1755	8.7750	440.061514	1412.398344	-70.346339	460.860359	1447.852617	-400.785139	390.111869	1531.585420	-238.436929	423.765818	1356.873421	-247.511013	552.385600	1174.379323	14.977373	767.243510	969.535597	-49.037169	558.058046	1175.557305	-494.461075	795.212133	963.613871	-443.610450	-120.275987	1190.662953	-267.040883	102.053917	1211.794213	-462.284676	87.157574	1231.196790	-61.053555	143.478065	1142.643711	-432.174676	114.148947	1174.116643	-106.144638	-85.306408	1265.826656	-218.474397	-83.094784	1253.763463	-313.651819	60.970693	1106.851019	-30.974104	20.075558	1060.606923	-467.035968	NaN	NaN	NaN	NaN	NaN	NaN	365.759345	1035.951147	-42.257315	293.372585	1108.105738	-49.730601	474.820748	998.967320	-56.593867	486.901926	982.195734	-189.349789	405.249885	858.381992	-51.736178	376.489152	777.270090	-72.897331	311.848418	719.013885	-76.858986	399.509110	767.924702	-104.450801	225.016300	618.765835	-93.590182	161.331475	625.174384	-143.685697	407.937202	479.813531	-132.603857	331.624953	484.217910	-64.639468	108.753236	937.277669	-479.593828	171.773574	880.223572	-470.936909	203.039254	899.407569	-464.485263	198.330342	794.778958	-459.680731	266.419948	678.924372	-432.657462	276.751869	671.512957	-305.857750	112.476580	278.266031	-408.165269	53.167963	247.888739	-374.961724	239.997690	157.305851	-443.256076	214.001714	564.688815	-452.615756	210.992173	479.505672	-438.500669	165.518713	404.103187	-433.537104	241.912715	473.171065	-416.606957	338.144014	160.374340	-374.937513	-205.530378	957.132389	-261.786618	1.356013	82.466561	-461.067276	-15.245775	81.069116	-62.556363	
1756	8.7800	439.749499	1412.378918	-70.495541	460.599351	1447.721796	-400.758413	389.935608	1531.516471	-238.492004	423.382557	1356.770796	-247.611256	552.336490	1174.443421	14.824789	767.249468	969.615649	-48.997797	557.898661	1175.446230	-494.226398	795.181739	963.598485	-443.589919	-120.504281	1190.654448	-267.148646	101.700043	1211.875666	-462.464723	86.721042	1231.357142	-61.115029	143.117448	1142.657079	-432.358401	113.721514	1174.397294	-106.214406	-85.629737	1265.856080	-218.650620	-83.327292	1253.786784	-313.749477	60.719274	1106.951610	-31.073750	19.685546	1060.604627	-467.018261	NaN	NaN	NaN	NaN	NaN	NaN	365.671495	1036.720552	-42.583299	293.184088	1108.880555	-49.797658	474.970779	1000.204066	-56.782454	486.873171	983.625083	-190.500458	406.723805	858.884359	-51.906536	378.972735	777.440329	-72.858350	315.018044	718.347392	-76.697989	402.207798	768.274743	-104.281362	229.503321	616.990190	-93.443131	165.557721	623.053718	-143.368783	413.252883	479.439902	-132.383424	336.989078	483.196065	-64.409078	108.504225	937.421409	-479.600506	171.533694	880.346983	-471.016095	202.833491	899.547976	-464.685286	198.162917	794.934936	-459.782575	266.038155	679.012381	-432.854517	277.402923	671.427532	-305.798779	107.660503	280.063744	-408.215815	48.124877	249.750527	-375.022575	234.629123	158.500389	-443.323220	212.456017	565.200730	-452.734721	208.544889	480.112550	-438.584138	162.271693	405.196838	-433.555130	239.430251	473.503263	-416.740583	332.851607	161.211819	-375.048419	-205.575171	957.152929	-261.793278	1.356568	82.456976	-461.057057	-15.263107	81.065664	-62.555477	
1757	8.7850	439.481497	1412.350338	-70.575108	460.293862	1447.569033	-400.665569	389.711247	1531.405939	-238.503423	423.033058	1356.668497	-247.675312	552.284372	1174.514795	14.640757	767.231793	969.720305	-48.991232	557.706535	1175.323038	-493.996401	795.155292	963.586881	-443.637081	-120.720351	1190.591022	-267.218943	101.445840	1212.022248	-462.778069	86.195299	1231.590225	-61.250050	142.812883	1142.700121	-432.606348	113.336426	1174.585560	-106.253061	-85.879081	1265.896485	-218.821790	-83.639831	1253.753418	-313.732831	60.456507	1107.021547	-31.163230	19.323516	1060.603772	-467.002350	NaN	NaN	NaN	NaN	NaN	NaN	365.572985	1037.245412	-42.947426	292.947937	1109.292538	-49.946443	475.079363	1001.304173	-56.938524	486.963500	984.688300	-190.837322	408.195242	859.234770	-52.098793	381.406305	777.383278	-72.810585	318.052555	717.616066	-76.630945	404.730167	768.352639	-104.144544	233.807985	615.094128	-92.951654	169.968842	620.711277	-143.209148	418.482260	478.783635	-132.104034	342.425392	481.905881	-64.268438	108.312900	937.553672	-479.596624	171.414521	880.538741	-471.137756	202.722183	899.773191	-464.923316	198.134294	795.153551	-459.925707	265.809777	679.162835	-433.058568	277.545014	671.550188	-305.945015	102.939055	282.042290	-408.312925	43.198797	251.824101	-375.162310	229.402546	160.016324	-443.515481	210.979172	565.959443	-452.875143	206.194923	480.880537	-438.700409	159.129965	406.376699	-433.641538	237.028681	473.933871	-416.872725	327.634127	162.209223	-375.158695	-205.585165	957.128682	-261.830880	1.354041	82.462956	-461.052704	-15.265108	81.081629	-62.549606	
